<?xml version="1.0" encoding="UTF-8"?>
<svg id="a" data-name="Background" xmlns="http://www.w3.org/2000/svg" width="400" height="400" viewBox="0 0 400 400">
  <defs>
    <style>
      .d {
        fill: #6818ad;
      }

      .d, .e {
        stroke-width: 0px;
      }

      .e {
        fill: #fff;
      }
    </style>
  </defs>
  <circle class="d" cx="200" cy="200" r="200"/>
  <path id="b" data-name="symbol" class="e" d="M256.5926,166.1279c-1.715-18.5024-17.8806-24.7777-38.3195-26.6389l.1226-25.6528-15.8405-.0722-.1189,24.9767c-4.1642-.0189-8.4213.0423-12.6508.1058l.123-25.142-15.832-.0743-.1289,25.6454c-3.4299.053-6.7981.1001-10.0822.0869l-.0017-.0796-21.8479-.1092-.0759,16.677s11.6987-.1653,11.5032.0462c6.4162.0318,8.4869,3.7134,9.0791,6.8847l-.3388,70.2746c-.2911,1.9892-1.4933,5.1573-5.9761,5.1441.2018.1779-11.5148-.0567-11.5148-.0567l-3.2368,18.6332,20.6142.0954c3.8361.0224,7.6104.1041,11.3158.1446l-.1178,25.9448,15.8235.0763.1227-25.6706c4.3443.1088,8.5487.1624,12.6535.1778l-.1295,25.5523,15.8405.0722.1292-25.8987c26.6383-1.3821,45.3093-7.9087,47.7422-32.5497,1.964-19.8415-7.4662-28.7429-22.5663-32.3918,9.2062-4.5671,14.9871-12.6627,13.7091-26.2016h0ZM234.1647,221.5007c-.0842,19.3888-33.7525,17.0264-44.4881,16.9864l.169-34.3754c10.7387.0526,44.4174-2.834,44.3191,17.3889ZM227.0302,172.9674c-.0896,17.6398-28.1674,15.4504-37.1096,15.4094l.1505-31.1769c8.9422.041,37.0454-2.6312,36.9591,15.7675Z"/>
  <path class="e" d="M341.8041,280.0426c3.3061-5.7502,5.0473-12.2764,5.0363-18.8731l.1086-126.292c-6.0154.0955-24.1408,10.9739-24.1822,27.7274l.0727,98.6055c.0044,2.4028-.6297,4.7788-1.835,6.874-1.206,2.0947-2.9418,3.8368-5.0216,5.0401l-85.2909,49.4825c-14.4649,8.4528-14.7677,29.5843-11.8282,34.8334l109.1418-63.5433c5.7093-3.3047,10.4773-8.089,13.7881-13.8365"/>
  <path class="e" d="M58.1959,280.0426c-3.3061-5.7502-5.0473-12.2764-5.0363-18.8731l-.1086-126.292c6.0154.0955,24.1408,10.9739,24.1822,27.7274l-.0727,98.6055c-.0044,2.4028.6297,4.7788,1.835,6.874,1.206,2.0947,2.9418,3.8368,5.0216,5.0401l85.2909,49.4825c14.4649,8.4528,14.7677,29.5843,11.8282,34.8334l-109.1418-63.5433c-5.7093-3.3047-10.4773-8.089-13.7881-13.8365"/>
  <path class="e" d="M200.0056,37.2296c6.6329.0023,13.1579,1.7479,18.8701,5.0475l109.5183,62.8923c-3.0829,5.1662-21.5515,15.4511-36.0934,7.1314l-85.4305-49.2411c-2.0804-1.2022-4.4561-1.8376-6.8733-1.8378-2.4171.0006-4.7927.6363-6.873,1.8388l-85.4268,49.2475c-14.5407,8.3217-33.0075-1.9548-36.0911-7.1206l109.5094-62.9077c5.7118-3.3004,12.2366-5.047,18.8695-5.0502"/>
</svg>